# xmcd CD database file
#
# Track frame offsets:
#	150
#	19075
#	38411
#	54952
#	70582
#	82921
#	105241
#	125598
#	144064
#	164898
#	180165
#	195765
#	224185
#
# Disc length: 3404 seconds
#
# Revision: 0
# Processed by: cddbd v1.5.2PL0 Copyright (c) Steve Scherf et al.
# Submitted via: CDex 1.51
#
DISCID=9d0d4a0d
DTITLE=Sultans of slide - Lightning Strikes
DYEAR=1900
DGENRE=Blues
TTITLE0=1 Strange Angel
TTITLE1=2 Drive All Night
TTITLE2=3 Lucky Again
TTITLE3=4 Stupid Trouble
TTITLE4=5 Entre Amis
TTITLE5=6 Lightning Strikes
TTITLE6=7 Rolling Stone
TTITLE7=8 Stumptown Slitter
TTITLE8=9 Never Happy 
TTITLE9=10 Dime at a Time
TTITLE10=11 Different Day Same Scene
TTITLE11=12 The Highway is Like a Woman
TTITLE12=13 Going Upstairs
EXTD=
EXTT0=
EXTT1=
EXTT2=
EXTT3=
EXTT4=
EXTT5=
EXTT6=
EXTT7=
EXTT8=
EXTT9=
EXTT10=
EXTT11=
EXTT12=
PLAYORDER=
